<?xml version="1.0" encoding="utf-8"?>
<!-- Generator: Adobe Illustrator 27.8.0, SVG Export Plug-In . SVG Version: 6.00 Build 0)  -->
<svg version="1.1" id="Layer_1" xmlns="http://www.w3.org/2000/svg" xmlns:xlink="http://www.w3.org/1999/xlink" x="0px" y="0px"
	 viewBox="0 0 16 16" style="enable-background:new 0 0 16 16;" xml:space="preserve">
<style type="text/css">
	.st0{fill:#FFFFFF;}
	.st1{fill:#1F429A;}
	.st2{fill:#DA1F26;}
	.st3{fill:#886929;}
	.st4{fill:#90191C;}
	.st5{fill:#FBF7F7;}
	.st6{fill:#FFC907;}
	.st7{fill:#F5C913;}
	.st8{fill:#030303;}
	.st9{fill:#225FAC;}
	.st10{fill:#FFCA06;}
</style>
<g>
	<path class="st0" d="M14.3,8c1-0.4,1.7-1.4,1.7-2.5c0-1.5-1.2-2.7-2.7-2.8c-0.2-1.3-1.4-2.3-2.7-2.3C9.4,0.4,8.4,1.1,8,2.1
		c-0.4-1-1.4-1.7-2.6-1.7c-1.4,0-2.5,1-2.7,2.3C1.3,2.7,0.2,3.8,0,5.2c0,0.1,0,0.2,0,0.3C0,6.6,0.7,7.5,1.6,8C0.7,8.4,0,9.4,0,10.5
		c0,1.5,1.2,2.7,2.7,2.8c0.2,1.3,1.4,2.3,2.7,2.3c1.1,0,2.1-0.7,2.5-1.7c0.4,1,1.4,1.7,2.6,1.7c1.4,0,2.5-1,2.7-2.3
		c0.3,0,0.5,0,0.7-0.1c1.1-0.3,1.8-1.2,2-2.3c0-0.1,0-0.2,0-0.3C16,9.4,15.3,8.4,14.3,8z M7.7,3.2L7.7,3.2L7.7,3.2L7.7,3.2z"/>
	<g>
		<path class="st1" d="M8.2,3.2C8.2,3.2,8.2,3.2,8.2,3.2C8.2,3.2,8.2,3.2,8.2,3.2L8.2,3.2L8.2,3.2c0-1.3,1-2.3,2.3-2.3
			c1.3,0,2.3,1,2.3,2.3c0,0,0,0,0,0c0.1,0,0.3,0,0.4,0c1.3,0,2.3,1,2.3,2.3c0,1.2-1,2.3-2.2,2.3l0,0h0c0,0,0,0-0.1,0c0,0,0,0-0.1,0
			l-4.9,0L8.2,3.2z"/>
		<path class="st2" d="M7.7,12.8C7.7,12.8,7.7,12.8,7.7,12.8C7.7,12.8,7.7,12.8,7.7,12.8L7.7,12.8L7.7,12.8c0,1.3-1,2.3-2.3,2.3
			c-1.3,0-2.3-1-2.3-2.3c0,0,0,0,0,0c-0.1,0-0.3,0-0.4,0c-1.3,0-2.3-1-2.3-2.3c0-1.2,1-2.3,2.2-2.3l0,0h0c0,0,0,0,0.1,0s0,0,0.1,0
			l4.9,0L7.7,12.8z"/>
		<path class="st3" d="M7.1,7.9C7.2,7.9,7.2,7.9,7.1,7.9C7.2,7.9,7.2,7.9,7.1,7.9z"/>
		<path class="st3" d="M8.4,11.7c0,0,0,0.1,0,0.1C8.4,11.8,8.4,11.8,8.4,11.7z"/>
		<path class="st3" d="M0.7,6.3C0.7,6.3,0.7,6.3,0.7,6.3C0.7,6.3,0.7,6.3,0.7,6.3z"/>
		<path class="st3" d="M0.7,6.3C0.7,6.3,0.7,6.3,0.7,6.3C0.7,6.3,0.7,6.3,0.7,6.3z"/>
		<path class="st4" d="M0.3,9.6C0.3,9.6,0.3,9.7,0.3,9.6C0.2,9.6,0.2,9.6,0.3,9.6z"/>
		<path class="st3" d="M0.7,6.2C0.7,6.2,0.7,6.2,0.7,6.2C0.7,6.2,0.7,6.2,0.7,6.2z"/>
		<path class="st3" d="M0.7,6.3C0.7,6.3,0.7,6.4,0.7,6.3C0.7,6.4,0.7,6.3,0.7,6.3z"/>
		<path class="st3" d="M0.6,6.2C0.6,6.2,0.6,6.1,0.6,6.2C0.6,6.1,0.6,6.2,0.6,6.2z"/>
		<g>
			<path class="st5" d="M3.3,11.7C3.3,11.7,3.3,11.7,3.3,11.7C3.3,11.7,3.3,11.7,3.3,11.7C3.3,11.8,3.3,11.8,3.3,11.7
				c-0.1,0.1-0.1,0.1-0.1,0.1c0,0,0,0,0,0c0,0,0,0,0,0c0,0,0,0,0,0c0,0,0,0,0,0c0,0,0,0,0,0c0,0,0,0-0.1,0c0,0,0,0,0,0
				c0,0,0,0-0.1,0c-0.1,0-0.2,0-0.2,0c0-0.1,0.1-0.1,0.1-0.2c0.2-0.3,0.4-0.5,0.6-0.8c0,0,0.1-0.1,0.1-0.2c-0.1,0-0.1,0-0.1,0.1
				c-0.1,0.1-0.2,0.2-0.3,0.3c-0.1,0.1-0.3,0.1-0.4,0.1c-0.1,0-0.1-0.1-0.1-0.2c0.2-0.2,0.3-0.4,0.6-0.6c0.1,0,0.1-0.1,0.2-0.2
				c-0.1,0-0.1,0.1-0.2,0.1c-0.1,0.1-0.3,0.2-0.5,0.2c0,0-0.1,0-0.1,0c-0.1,0-0.1,0-0.1-0.1c0-0.1,0-0.1,0.1-0.1
				c0.2-0.1,0.4-0.2,0.6-0.3c0.1,0,0.1,0,0.1-0.1c-0.1,0-0.1,0-0.1,0c-0.2,0-0.3,0-0.5,0c-0.1,0-0.1,0-0.2-0.1
				c-0.1-0.1-0.1-0.1,0-0.2c0.2-0.1,0.4-0.1,0.6-0.1c0.1,0,0.1,0,0.2,0c0-0.1,0,0-0.1,0c-0.1,0-0.2,0-0.3-0.1
				C2.7,9.4,2.6,9.3,2.6,9.2c0-0.1,0-0.1,0.1-0.1c0.1,0,0.1,0,0.2,0.1c0.2,0,0.3,0.1,0.5,0.1c0.1,0,0.1,0,0.2,0
				c0.2,0,0.3,0.2,0.2,0.4c0,0.1-0.1,0.2-0.1,0.3c-0.1,0.1,0,0.3,0.1,0.4c0.1,0.1,0.2,0.1,0.4,0.1c0.1,0,0.2-0.1,0.1-0.2
				c0,0,0,0,0-0.1c0.1-0.1,0.2-0.1,0.3-0.2c0.1-0.1,0.1-0.1,0-0.2c0,0,0-0.1,0-0.1c-0.1-0.1,0-0.1,0-0.1c0.1,0,0.1,0,0.2,0
				c0,0,0.1,0,0-0.1c0,0,0,0-0.1,0c0,0-0.1,0-0.1,0.1c0,0,0,0-0.1,0l0,0c-0.1,0-0.1,0-0.2,0c0-0.1,0-0.1,0.1-0.1c0.2,0,0.4,0,0.6,0
				l0,0c0,0,0,0,0,0c0.1,0.1,0.1,0.2,0.2,0.3c0,0.1,0,0.2,0,0.2c0,0,0,0.1,0,0.1c0,0,0.1,0.1,0,0.1c0,0,0,0.1,0,0.1
				c0,0,0.1,0.1,0,0.1c0,0,0,0,0,0.1c0,0.1,0.2,0.2,0.4,0.1c0.2-0.1,0.3-0.3,0.2-0.5c0-0.1-0.1-0.2-0.1-0.2C5.6,9.4,5.7,9.2,6,9.2
				c0.3,0,0.6,0,0.9-0.1C7,9.1,7,9.1,7,9.2c0,0.1-0.1,0.2-0.2,0.3C6.6,9.6,6.5,9.6,6.3,9.6c0,0.1,0.1,0,0.1,0c0.2,0,0.3,0,0.5,0
				c0,0,0,0,0.1,0c0.1,0,0.2,0,0.2,0.1C7.2,9.9,7.1,9.9,7,10C6.9,10,6.7,10,6.6,10c-0.1,0-0.1,0-0.2,0c0.1,0.1,0.1,0.1,0.2,0.1
				c0.2,0.1,0.4,0.1,0.5,0.3c0,0,0.1,0.1,0.1,0.1c0,0.1-0.1,0.1-0.1,0.1c-0.2,0-0.3,0-0.5-0.1c-0.1,0-0.2-0.1-0.3-0.1
				c0,0.1,0,0.1,0.1,0.1c0.2,0.2,0.4,0.3,0.6,0.5c0,0.1,0.1,0.1,0.1,0.2c0,0.1-0.2,0.1-0.2,0c-0.2-0.1-0.4-0.2-0.6-0.4
				c-0.1-0.1-0.1-0.1-0.2-0.2c0,0.1,0,0.1,0.1,0.2c0.2,0.2,0.3,0.4,0.5,0.6c0,0.1,0.1,0.1,0.1,0.2c0,0,0.1,0.1,0.1,0.1
				c0,0.1-0.1,0-0.2,0c-0.2,0-0.4-0.2-0.5-0.3C6,11.4,5.8,11.2,5.7,11c0,0,0-0.1-0.1-0.1c0,0.1,0.1,0.2,0.2,0.4
				c0,0.1,0.1,0.2,0.1,0.3c0,0.1,0,0.1-0.1,0.1c-0.1,0-0.2-0.1-0.3-0.1c-0.1-0.1-0.2-0.2-0.3-0.4c0-0.1,0-0.1-0.1-0.2
				c-0.1,0.1-0.1,0.2,0,0.3c0.1,0.2,0.3,0.3,0.4,0.5c0,0,0.1,0,0.1,0.1c0,0-0.1,0-0.1,0.1C5.6,12,5.6,12,5.5,12c0,0,0,0-0.1,0
				c0,0,0,0,0,0c0,0,0,0,0,0.1c0,0,0,0,0,0c0,0,0,0.1-0.1,0c-0.1-0.1-0.1-0.2-0.1-0.3c-0.1,0-0.1,0.1-0.1,0.1c0,0-0.1-0.1-0.1-0.1
				c0,0.2,0.1,0.4,0.2,0.6c0,0,0,0,0,0c0,0,0,0,0,0c0,0,0,0,0,0c0,0,0,0,0,0c0,0,0,0,0,0c0,0,0,0,0,0c0,0,0,0,0,0c0,0,0,0,0,0
				c0,0,0,0,0,0c0,0,0,0,0,0c0.1,0.1,0.1,0.1,0.2,0.2c0.1,0,0.2,0.1,0.1,0.2c0,0.1-0.2,0.1-0.3,0c-0.1-0.1-0.2-0.2-0.2-0.3
				c0,0,0,0,0,0l0,0c0,0,0,0,0,0c0,0,0-0.1-0.1-0.2c0,0.1,0,0.1,0,0.2c0,0.1,0.1,0.2,0.2,0.3c0,0,0,0,0,0l0,0c0,0,0,0,0,0
				c0,0,0,0,0,0c0,0,0,0,0,0c0,0,0,0,0,0c0,0,0,0,0,0c0,0,0,0,0,0c0,0,0,0,0,0c0,0,0,0,0,0c0,0,0,0.1,0,0.1c0,0,0,0,0,0
				c-0.1,0.1-0.2,0.1-0.3-0.1c0,0.1,0,0.3-0.1,0.4c-0.1,0.1-0.1,0.1-0.2,0c-0.1-0.1-0.1-0.2-0.1-0.4c0,0,0,0-0.1,0.1
				c-0.1,0.1-0.1,0.1-0.2,0c-0.1-0.1-0.1-0.1,0-0.2c0.1-0.1,0.2-0.2,0.2-0.4c0,0,0-0.1,0-0.1c0,0,0,0-0.1,0.1c0,0.1-0.1,0.2-0.2,0.2
				c-0.1,0.1-0.2,0.1-0.3,0c0-0.1,0-0.1,0-0.1c0.3-0.2,0.5-0.5,0.5-0.8c0-0.1,0-0.1,0-0.2c-0.1,0.2-0.1,0.2-0.2,0.1
				c0,0.1-0.1,0.2-0.1,0.3c0,0.1-0.1,0.1-0.1,0c0,0-0.1-0.1-0.1,0C4,12,4,11.9,4,11.9c0,0-0.1,0-0.1-0.1c0,0,0,0,0.1-0.1
				c0.2-0.1,0.4-0.3,0.4-0.5c0-0.1,0-0.2,0-0.2c0,0.1-0.1,0.2-0.1,0.2c-0.1,0.2-0.2,0.3-0.4,0.4c-0.1,0-0.1,0-0.2,0c0,0,0-0.1,0-0.1
				c0.1-0.2,0.2-0.3,0.2-0.5c0,0,0.1-0.1,0-0.2C3.7,11.2,3.6,11.5,3.3,11.7z"/>
			<path class="st6" d="M5.5,12c0-0.1,0.1-0.1,0.1-0.1c0.1,0.1,0.1,0.2,0.2,0.2c0.1,0.1,0.3,0.1,0.4-0.1c0,0,0.1,0,0.1,0
				c0.1,0,0.1,0.1,0.1,0.1c0,0.1,0,0.1,0,0.1c0,0,0,0.1-0.1,0.2c0-0.1-0.1-0.1-0.1-0.2c0,0,0,0,0.1,0c0,0,0.1,0,0-0.1c0,0,0,0-0.1,0
				c-0.1,0-0.1,0-0.2,0.1c-0.1,0,0,0.1,0,0.1c0,0,0,0.1,0.1,0.1c0.1,0,0.1,0.1,0.1,0.2c0,0.1-0.1,0.1-0.2,0.1c0,0-0.1,0-0.1,0
				c0,0,0.1,0,0.1-0.1c0-0.1-0.1-0.2-0.2-0.2c0,0-0.1,0-0.1,0.1c0,0,0,0,0,0c-0.1,0-0.1,0-0.2-0.1c0-0.1,0-0.2,0.1-0.1
				c0,0,0.1,0,0.1,0c0,0,0-0.1,0-0.1C5.7,12.2,5.6,12.1,5.5,12z"/>
			<path class="st6" d="M4.1,12C4,12.1,4,12.1,3.9,12.2c-0.1,0.1-0.1,0.1,0,0.1c0,0,0.1,0,0.1,0.1c0,0.1-0.1,0.1-0.1,0.1
				c0,0,0,0,0,0c0-0.1,0-0.1-0.1-0.1c0,0-0.1,0-0.2,0c0-0.1-0.1,0-0.1,0c-0.1,0,0,0.1,0,0.2c0,0-0.1,0-0.1,0c0,0,0-0.1,0-0.1
				c0,0,0.1-0.1,0.1-0.1c0.1,0,0.1-0.1,0-0.1c-0.1-0.1-0.2,0-0.3,0.1c0-0.1,0-0.1,0-0.2c0,0,0,0,0,0c0,0,0,0,0,0c0,0,0.1,0,0.1,0
				c0.2,0.1,0.3,0.1,0.5,0c0,0,0.1-0.1,0.1-0.1C4,11.9,4,12,4.1,12z"/>
			<path class="st7" d="M4.4,8.9c0.1,0,0.1,0,0.2,0c0,0,0,0.1,0,0.1c0,0.1,0.1,0,0.1,0c0,0,0.1-0.1,0-0.1c-0.1-0.1,0-0.1,0-0.2
				c0,0,0,0,0-0.1c0,0,0,0.1,0.1,0.1c0,0,0,0.1,0,0.1c0,0,0,0.1,0,0.1c0,0,0.1,0,0.2,0c0,0,0,0,0-0.1c0-0.1,0-0.1,0.1-0.1
				c0.1,0,0.1,0.1,0.2,0C5.3,9,5.3,9,5.2,9c0,0,0-0.1,0-0.1c0,0,0-0.1-0.1,0c0,0,0,0-0.1,0.1c0,0,0,0,0,0.1c0,0,0.1,0,0.1,0
				c0,0.1-0.1,0.1-0.1,0.2c0,0,0,0,0,0c0,0,0,0,0,0c-0.2-0.1-0.4-0.1-0.6,0c0,0-0.1,0-0.1,0C4.4,9.1,4.3,9,4.2,8.9
				C4.3,8.9,4.4,8.9,4.4,8.9C4.4,8.9,4.4,8.9,4.4,8.9z M4.6,9c0,0,0-0.1-0.1-0.1c0,0-0.1,0.1,0,0.1C4.5,9.1,4.5,9,4.6,9z M4.9,9.1
				C4.9,9.1,4.9,9.1,4.9,9.1C5,9.1,5,9.1,4.9,9.1C5,9,4.9,9,4.9,9.1z M5.1,9.1C5.1,9.1,5.1,9.1,5.1,9.1C5,9.1,5,9.1,5.1,9.1
				C5,9.1,5.1,9.1,5.1,9.1C5.1,9.1,5.1,9.1,5.1,9.1z"/>
			<path class="st7" d="M4.4,9.4c0.1,0,0.1,0,0.2,0c0,0,0,0,0,0c0,0,0,0,0.1,0c0,0,0,0,0,0.1c0,0-0.1,0.1,0,0.1c0,0,0,0,0,0.1
				c-0.1,0-0.1,0-0.1,0c0,0-0.1,0-0.1,0c0-0.1,0-0.1,0-0.1c0,0,0,0,0,0c0,0-0.1,0-0.1,0C4.2,9.5,4.3,9.4,4.4,9.4
				C4.4,9.4,4.4,9.4,4.4,9.4z"/>
			<path class="st3" d="M4.5,9.2c0.2-0.1,0.4-0.1,0.6,0C4.9,9.2,4.7,9.2,4.5,9.2C4.5,9.2,4.5,9.2,4.5,9.2z"/>
			<path class="st0" d="M5.4,12.1C5.4,12.1,5.4,12,5.4,12.1C5.5,12,5.5,12,5.4,12.1C5.5,12.1,5.5,12.1,5.4,12.1z"/>
			<path class="st2" d="M5.2,12.4C5.2,12.4,5.2,12.4,5.2,12.4C5.2,12.4,5.2,12.4,5.2,12.4z"/>
			<path class="st2" d="M3.2,11.8C3.2,11.8,3.3,11.8,3.2,11.8C3.3,11.8,3.3,11.8,3.2,11.8z"/>
			<path class="st2" d="M5.2,12.3C5.2,12.3,5.1,12.3,5.2,12.3C5.2,12.3,5.2,12.3,5.2,12.3z"/>
			<path class="st2" d="M3.2,11.8C3.2,11.8,3.2,11.8,3.2,11.8C3.2,11.8,3.2,11.8,3.2,11.8z"/>
			<path class="st2" d="M3.1,11.9C3.1,11.9,3.1,11.8,3.1,11.9C3.1,11.9,3.1,11.9,3.1,11.9z"/>
			<path class="st2" d="M3,11.9C3,11.9,3.1,11.9,3,11.9C3.1,11.9,3,11.9,3,11.9z"/>
			<path class="st2" d="M5.2,12.5C5.2,12.4,5.2,12.4,5.2,12.5C5.2,12.4,5.2,12.4,5.2,12.5z"/>
			<path class="st2" d="M3.2,12.1C3.2,12.1,3.2,12.1,3.2,12.1C3.2,12.1,3.2,12.1,3.2,12.1z"/>
			<path class="st2" d="M3.2,11.8C3.2,11.8,3.2,11.8,3.2,11.8C3.2,11.8,3.2,11.8,3.2,11.8z"/>
			<path class="st2" d="M3.3,11.7C3.3,11.7,3.3,11.7,3.3,11.7C3.3,11.7,3.3,11.7,3.3,11.7z"/>
			<path class="st2" d="M5.2,12.4C5.2,12.4,5.2,12.4,5.2,12.4C5.2,12.4,5.2,12.4,5.2,12.4z"/>
			<path class="st3" d="M5.1,9.2C5.1,9.2,5.1,9.2,5.1,9.2C5.1,9.2,5.1,9.2,5.1,9.2C5.1,9.2,5.1,9.2,5.1,9.2z"/>
			<path class="st2" d="M5.3,12.5C5.3,12.5,5.3,12.5,5.3,12.5C5.3,12.5,5.3,12.5,5.3,12.5z"/>
			<path class="st2" d="M5.2,12.9C5.2,12.9,5.2,12.9,5.2,12.9C5.2,12.9,5.2,12.9,5.2,12.9z"/>
			<path class="st2" d="M5.2,12.9C5.2,12.9,5.2,12.9,5.2,12.9C5.2,12.9,5.2,12.9,5.2,12.9z"/>
			<path class="st2" d="M5.2,13C5.2,13,5.2,13,5.2,13C5.2,12.9,5.2,13,5.2,13z"/>
			<path class="st2" d="M5.3,13.1C5.3,13,5.3,13,5.3,13.1C5.3,13,5.3,13,5.3,13.1C5.3,13,5.3,13.1,5.3,13.1z"/>
			<path class="st2" d="M5.3,13.2C5.3,13.2,5.3,13.2,5.3,13.2C5.3,13.2,5.3,13.2,5.3,13.2C5.3,13.2,5.3,13.2,5.3,13.2z"/>
			<path class="st2" d="M4.7,9.4C4.7,9.4,4.7,9.4,4.7,9.4c0-0.1,0.1-0.1,0.1-0.1c0,0,0.1,0,0.1,0c0,0,0,0,0,0.1
				C4.8,9.4,4.7,9.4,4.7,9.4z"/>
			<path class="st2" d="M4.6,9.4C4.6,9.4,4.6,9.4,4.6,9.4C4.6,9.4,4.6,9.4,4.6,9.4z"/>
		</g>
		<path class="st8" d="M15.5,10.8c0-0.1,0-0.2,0-0.3c0-1.2-1-2.3-2.2-2.3l0,0h0c0,0,0,0-0.1,0c0,0,0,0-0.1,0l-4.9,0l0,1.8
			c0.6-0.1,1.3-0.1,1.9-0.1C12,9.9,13.8,10.2,15.5,10.8z"/>
		<path class="st2" d="M13.8,12.7c0.9-0.3,1.5-1,1.6-1.9c-1.7-0.6-3.5-0.9-5.3-0.9c-0.6,0-1.3,0-1.9,0.1l0,2.1C8.7,12,9.2,12,9.7,12
			C11.2,12,12.6,12.3,13.8,12.7z"/>
		<path class="st6" d="M8.2,12.8C8.2,12.8,8.2,12.8,8.2,12.8L8.2,12.8L8.2,12.8c0,1.3,1,2.3,2.3,2.3c1.3,0,2.3-1,2.3-2.3
			c0,0,0,0,0,0c0.1,0,0.3,0,0.4,0c0.2,0,0.4,0,0.7-0.1c-1.3-0.5-2.7-0.7-4.1-0.7c-0.5,0-1,0-1.5,0.1L8.2,12.8
			C8.2,12.8,8.2,12.8,8.2,12.8z"/>
		<path class="st9" d="M7.7,5.8l0-2.6c0,0,0,0,0,0s0,0,0,0v0l0,0c0-1.3-1-2.3-2.3-2.3c-1.3,0-2.3,1-2.3,2.3c0,0,0,0,0,0
			c-0.1,0-0.3,0-0.4,0c-1.2,0-2.2,0.9-2.3,2.1c0.9-0.3,1.9-0.5,3-0.5C5,4.7,6.4,5.1,7.7,5.8z"/>
		<path class="st10" d="M2.7,7.8L2.7,7.8L2.7,7.8C2.7,7.8,2.7,7.8,2.7,7.8c0.1,0,0.1,0,0.1,0l4.9,0l0-1.9C6.4,5.1,5,4.7,3.5,4.7
			c-1.1,0-2.1,0.2-3,0.5c0,0.1,0,0.2,0,0.2C0.4,6.7,1.4,7.7,2.7,7.8z"/>
		<g>
			<polygon class="st10" points="11,2.6 11.1,2.8 11.4,2.8 11.2,3 11.2,3.2 11,3 10.8,3.2 10.9,3 10.7,2.8 11,2.8 			"/>
			<polygon class="st10" points="8.9,4.7 9,5 9.2,5 9,5.1 9.1,5.4 8.9,5.2 8.7,5.4 8.8,5.1 8.6,5 8.8,5 			"/>
			<polygon class="st10" points="9.2,3.6 9.3,3.9 9.5,3.9 9.3,4 9.4,4.3 9.2,4.1 9,4.3 9,4 8.8,3.9 9.1,3.9 			"/>
			<polygon class="st10" points="10,2.9 10,3.1 10.3,3.1 10.1,3.3 10.2,3.5 10,3.3 9.8,3.5 9.8,3.3 9.6,3.1 9.9,3.1 			"/>
			<polygon class="st10" points="12.9,3.6 12.8,3.9 12.6,3.9 12.8,4 12.7,4.3 12.9,4.1 13.1,4.3 13,4 13.2,3.9 13,3.9 			"/>
			<polygon class="st10" points="9.2,5.8 9.3,6 9.5,6 9.3,6.2 9.4,6.4 9.2,6.3 9,6.4 9,6.2 8.8,6 9.1,6 			"/>
			<polygon class="st10" points="12.9,5.8 12.8,6 12.6,6 12.8,6.2 12.7,6.4 12.9,6.3 13.1,6.4 13,6.2 13.2,6 13,6 			"/>
			<polygon class="st10" points="12.1,2.9 12,3.1 11.8,3.1 12,3.3 11.9,3.5 12.1,3.3 12.3,3.5 12.2,3.3 12.4,3.1 12.2,3.1 			"/>
			<polygon class="st10" points="10,6.5 10,6.8 10.3,6.8 10.1,6.9 10.2,7.2 10,7 9.8,7.2 9.8,6.9 9.6,6.8 9.9,6.8 			"/>
			<polygon class="st10" points="12.1,6.5 12,6.8 11.8,6.8 12,6.9 11.9,7.2 12.1,7 12.3,7.2 12.2,6.9 12.4,6.8 12.2,6.8 			"/>
			<polygon class="st10" points="13.2,4.7 13.3,5 13.5,5 13.3,5.1 13.4,5.4 13.2,5.2 13,5.4 13.1,5.1 12.8,5 13.1,5 			"/>
			<polygon class="st10" points="11,6.8 11.1,7.1 11.4,7.1 11.2,7.2 11.2,7.5 11,7.3 10.8,7.5 10.9,7.2 10.7,7.1 11,7.1 			"/>
		</g>
	</g>
</g>
</svg>
