<?xml version="1.0" encoding="utf-8"?>
<!-- Generator: Adobe Illustrator 27.8.0, SVG Export Plug-In . SVG Version: 6.00 Build 0)  -->
<svg version="1.1" id="Layer_1" xmlns="http://www.w3.org/2000/svg" xmlns:xlink="http://www.w3.org/1999/xlink" x="0px" y="0px"
	 viewBox="0 0 1920 308.3" style="enable-background:new 0 0 1920 308.3;" xml:space="preserve">
<style type="text/css">
	.st0{fill:#FFFFFF;}
	.st1{fill:#0039A2;}
	.st2{fill:#DB0000;}
	.st3{fill:#886700;}
	.st4{fill:#900000;}
	.st5{fill:#FCF7F7;}
	.st6{fill:#FFC800;}
	.st7{fill:#F5C800;}
	.st8{fill:#020101;}
	.st9{fill:#005CB9;}
	.st10{fill:#FFC900;}
</style>
<g>
	<path class="st0" d="M414.4,98.1h14.8v85.1c0,2.1,0.2,4,0.6,5.7c0.4,1.7,1,3.2,1.8,4.4c0.8,1.2,1.9,2.1,3.2,2.7
		c1.3,0.6,2.8,0.9,4.7,0.9c2,0,3.6-0.3,4.9-1c1.3-0.7,2.3-1.6,3.1-2.8c0.8-1.2,1.3-2.7,1.7-4.3c0.3-1.7,0.5-3.5,0.5-5.6V98.1h14.9
		v84.6c0,4.4-0.5,8.4-1.6,11.8c-1.1,3.4-2.6,6.3-4.6,8.7c-2,2.4-4.6,4.2-7.7,5.4c-3.1,1.2-6.9,1.8-11.5,1.8c-4,0-7.6-0.6-10.7-1.7
		s-5.8-2.8-7.8-5.1c-2-2.3-3.6-5.1-4.6-8.6c-1.1-3.5-1.6-7.6-1.6-12.2V98.1z"/>
	<path class="st0" d="M493.7,93.3v68.4h0.3c0.8-1.8,1.7-3.9,2.8-6.4c1.1-2.5,2.3-5.2,3.6-8c1.3-2.9,2.5-5.7,3.7-8.4
		c1.2-2.7,2.4-5.4,3.6-8c1.2-2.7,2.2-5,3.1-7.1h15.6L510.7,155c1.1,3.5,2.4,7.6,3.9,12.3c1.5,4.6,3.1,9.5,4.8,14.7
		c1.7,5.1,3.3,10.1,4.8,14.9c1.5,4.8,2.8,8.8,3.9,12.1h-16.3l-11.5-39.3l-6.6,12.4v26.9h-14.6V93.3H493.7z"/>
	<path class="st0" d="M534.4,208.9v-56.4c0-4.6,0-8.6,0-11.9c0-3.3,0-6.2,0-9c0-2.7-0.1-5.4-0.2-8h14.1c0.1,0.6,0.2,1.6,0.2,3.2
		c0,1.6,0,3.2,0.1,5.1c0.1,1.8,0.1,3.6,0.1,5.4c0.9-2.8,2-5.1,3.3-7c1.3-1.9,2.8-3.4,4.4-4.6c1.6-1.2,3.3-2,5.2-2.5
		c1.9-0.5,3.8-0.7,5.6-0.7v18.3c-3.3,0-6.4,0.6-9.1,1.7c-2.8,1.2-5,3.2-6.6,6.1c-1.6,2.9-2.4,7.2-2.4,12.7v47.6H534.4z"/>
	<path class="st0" d="M617.7,144.7v47.8c0,1.4,0,2.9,0,4.5c0,1.6,0,3.1,0.1,4.7c0.1,1.6,0.1,3,0.2,4.2c0.1,1.2,0.1,2.2,0.1,3h-13.6
		c-0.1-0.7-0.2-1.4-0.4-2.2c-0.2-0.8-0.3-1.7-0.3-2.5c-0.1-0.8-0.2-1.4-0.4-1.7c-0.8,1.8-1.9,3.3-3.3,4.5c-1.4,1.2-3,2.1-4.7,2.6
		c-1.7,0.5-3.7,0.7-5.9,0.7c-4.2,0-7.6-1.2-10.2-3.5c-2.6-2.3-4.5-5.3-5.6-9c-1.2-3.7-1.7-7.7-1.7-12v-1.5c0-4,0.5-7.5,1.4-10.5
		c0.9-3,2.3-5.5,4.1-7.6c1.8-2,3.9-3.7,6.3-4.9c2.4-1.2,5-2.1,7.8-2.7c2.8-0.6,5.8-0.8,8.9-0.8c0.3,0,0.6,0,0.8,0c0.2,0,0.5,0,0.9,0
		c0.4,0,0.7,0,0.9,0v-11.9c0-1.8-0.1-3.3-0.2-4.7c-0.2-1.4-0.5-2.6-1-3.6c-0.5-1-1.2-1.7-2.1-2.2c-0.9-0.5-2.1-0.7-3.7-0.7
		c-1.3,0-2.5,0.2-3.4,0.7c-0.9,0.5-1.7,1.2-2.2,2.2c-0.6,0.9-0.9,2-1.1,3.3c-0.2,1.3-0.2,2.6-0.2,3.9v1.8h-14.6v-1.5
		c0-3,0.3-5.9,1-8.6c0.7-2.8,1.8-5.2,3.5-7.3c1.7-2.1,3.9-3.8,6.8-5c2.9-1.2,6.5-1.8,11-1.8c4,0,7.3,0.6,10,1.7
		c2.7,1.1,4.8,2.6,6.5,4.6c1.7,1.9,2.8,4.3,3.6,7.1C617.3,138.4,617.7,141.4,617.7,144.7z M603.1,180.2v-11c-0.3,0-0.9,0-1.6,0
		c-0.7,0-1.3,0-1.7,0c-2,0-3.9,0.2-5.6,0.7c-1.8,0.5-3.3,1.3-4.5,2.4c-1.2,1.1-2.2,2.6-2.8,4.6c-0.7,1.9-1,4.3-1,7.2v1.3
		c0,2.2,0.3,4.2,0.8,5.9c0.6,1.7,1.4,3.1,2.7,4.1c1.2,1.1,2.8,1.6,4.6,1.6c1.7,0,3.1-0.3,4.2-1s2.1-1.7,2.8-3
		c0.7-1.3,1.2-3.1,1.6-5.2S603.1,183.2,603.1,180.2z"/>
	<path class="st0" d="M632.8,111V93.3h14.9V111H632.8z M632.8,208.9v-85.3h14.8v85.3H632.8z"/>
	<path class="st0" d="M662.7,208.9v-59.2c0-5.8,0-10.3,0-13.6s0-5.9,0-7.8c0-1.9-0.1-3.4-0.2-4.6h14.1c0.1,0.7,0.2,1.4,0.3,2.3
		c0.1,0.9,0.2,1.8,0.2,2.7c0,0.9,0.1,2,0.2,3.1c0.7-1.5,1.4-2.8,2.3-3.9c0.9-1.1,2-2,3.2-2.9c1.3-0.9,2.8-1.5,4.5-2
		c1.7-0.4,3.6-0.7,5.6-0.7c2.4,0,4.7,0.4,6.9,1.2c2.2,0.8,4,2.1,5.5,3.7s2.7,3.9,3.6,6.7c0.9,2.8,1.3,6.2,1.3,10.2v64.7h-14.9V147
		c0-2.7-0.3-4.8-0.9-6.5c-0.6-1.7-1.5-2.9-2.7-3.7c-1.2-0.8-2.6-1.2-4.4-1.2c-2.1,0-3.9,0.5-5.4,1.4c-1.5,0.9-2.6,2.6-3.3,5
		c-0.7,2.4-1.1,5.8-1.1,10.4v56.4H662.7z"/>
	<path class="st0" d="M725.1,111V93.3H740V111H725.1z M725.1,208.9v-85.3h14.8v85.3H725.1z"/>
	<path class="st0" d="M773.7,197.7c1.8,0,3.2-0.4,4.2-1.1c1.1-0.7,1.9-1.8,2.5-3.3c0.6-1.5,0.9-3.3,0.9-5.4c0-1.8-0.2-3.3-0.6-4.6
		c-0.4-1.3-1-2.7-1.7-4c-0.8-1.3-2-2.7-3.6-4.1c-1.6-1.4-3.6-2.9-6.1-4.6c-3-1.8-5.5-3.5-7.6-5.3c-2.1-1.8-3.9-3.7-5.4-5.6
		c-1.5-2-2.6-4.2-3.2-6.6c-0.7-2.4-1-5.1-1-8c0-3.4,0.4-6.6,1.3-9.4c0.9-2.8,2.2-5.2,4.1-7.2s4.1-3.5,6.8-4.6
		c2.7-1.1,5.8-1.6,9.4-1.6c4,0,7.3,0.6,10,1.7c2.7,1.1,4.9,2.7,6.6,4.7c1.7,2,2.8,4.5,3.6,7.4c0.7,2.9,1.1,6.2,1.2,10v3.7h-14.4
		v-5.1c-0.1-1.5-0.2-2.9-0.4-4.1c-0.2-1.2-0.6-2.2-1.2-3.1c-0.6-0.8-1.4-1.4-2.2-1.8c-0.9-0.4-1.9-0.6-3.2-0.6
		c-1.6,0-2.8,0.4-3.9,1.1c-1.1,0.7-1.8,1.7-2.2,3.1c-0.4,1.3-0.7,2.9-0.7,4.6c0,1.8,0.3,3.3,0.8,4.7c0.6,1.4,1.5,2.7,2.9,4
		c1.4,1.3,3.5,2.9,6.2,4.7c3.5,2.1,6.5,4.2,8.9,6.2c2.4,2,4.4,4.1,6,6.2c1.6,2.1,2.8,4.5,3.5,7.1c0.7,2.7,1.1,5.8,1.1,9.3
		c0,4-0.5,7.5-1.4,10.5c-0.9,3-2.4,5.6-4.4,7.6c-2,2-4.4,3.5-7.2,4.6c-2.8,1.1-6.2,1.6-10,1.6c-4.5,0-8.3-0.6-11.2-1.9
		c-2.9-1.3-5.2-3-6.9-5.3c-1.7-2.3-2.8-4.8-3.5-7.6c-0.7-2.8-0.9-5.8-0.8-8.9v-3.8h14.9v4c0,1.6,0.1,3,0.4,4.4
		c0.3,1.4,0.7,2.6,1.4,3.6c0.7,1,1.5,1.7,2.5,2.2C771,197.4,772.3,197.7,773.7,197.7z"/>
	<path class="st0" d="M828,197.7c1.5,0,2.8-0.3,3.7-0.8c0.9-0.6,1.7-1.4,2.2-2.5c0.6-1.1,0.9-2.5,1.2-4.1c0.2-1.7,0.3-3.5,0.3-5.5
		v-3.5h14.8v1.2c0,3-0.2,5.9-0.6,8.7c-0.4,2.8-1.1,5.4-2,7.7c-0.9,2.3-2.3,4.3-4,6c-1.7,1.7-3.9,3-6.5,4c-2.6,1-5.8,1.5-9.7,1.5
		c-4.6,0-8.4-0.7-11.3-2.2c-2.9-1.4-5.1-3.5-6.7-6.2c-1.6-2.7-2.7-5.9-3.3-9.5c-0.6-3.7-0.9-7.7-0.9-12.1v-30.9
		c0-3.5,0.4-6.9,1.2-10.1c0.8-3.2,2-6.1,3.6-8.7c1.6-2.6,3.9-4.6,7-6.1c3-1.4,6.8-2.2,11.4-2.2c3.9,0,7.1,0.5,9.8,1.6
		c2.7,1.1,4.8,2.4,6.3,4.1c1.5,1.7,2.7,3.7,3.6,5.9c0.8,2.2,1.4,4.5,1.7,6.7c0.3,2.3,0.5,4.5,0.5,6.7v3.3h-14.8v-3.3
		c0-1.8-0.1-3.4-0.2-5c-0.2-1.5-0.5-2.9-1.1-4c-0.6-1.1-1.3-2-2.2-2.6c-0.9-0.6-2.2-0.9-3.9-0.9c-1.1,0-2.1,0.2-3,0.5
		c-0.9,0.3-1.6,0.8-2.2,1.5c-0.6,0.7-1.1,1.6-1.5,2.7c-0.4,1.1-0.7,2.3-0.8,3.7c-0.1,1.3-0.2,2.8-0.2,4.5v36.7
		c0,1.7,0.1,3.3,0.2,4.8c0.2,1.6,0.5,3,1.1,4.2c0.6,1.3,1.3,2.3,2.2,3.1C824.8,197.3,826.2,197.7,828,197.7z"/>
	<path class="st0" d="M860.8,93.3h14.8v37.7c0.9-1.7,2-3.2,3.3-4.5s3-2.3,5.1-3.1c2.1-0.7,4.5-1.1,7.3-1.1c3.3,0,6,0.6,8.1,1.7
		c2.1,1.1,3.8,2.7,5.2,4.6c1.4,2,2.3,4.3,2.7,7.1c0.4,2.7,0.7,5.6,0.7,8.5v64.7h-14.8v-60.7c0-2.2-0.2-4.3-0.5-6.2
		c-0.3-1.9-1.1-3.5-2.2-4.6c-1.2-1.1-3-1.7-5.4-1.7c-2.4,0-4.4,0.6-5.8,1.8c-1.4,1.2-2.4,3-3,5.4c-0.6,2.4-0.8,5.5-0.8,9.2v56.8
		h-14.8V93.3z"/>
	<path class="st0" d="M944.3,197.7c1.8,0,3.2-0.4,4.3-1.1c1.1-0.7,1.9-1.7,2.5-2.9c0.6-1.2,0.9-2.6,1.2-4.2c0.2-1.6,0.3-3.3,0.3-5.1
		v-0.5h14.6v0.5c-0.1,1.8-0.3,3.8-0.5,6.1c-0.2,2.3-0.7,4.6-1.6,7c-0.8,2.4-2.1,4.5-3.7,6.5c-1.7,1.9-3.9,3.5-6.7,4.6
		c-2.8,1.2-6.3,1.7-10.4,1.7c-4.9,0-8.9-0.7-12-2.2c-3.2-1.5-5.5-3.6-7.1-6.3c-1.6-2.7-2.7-5.9-3.3-9.5c-0.6-3.7-0.9-7.6-0.9-12
		v-29.5c0-2.4,0.2-5,0.6-7.6c0.4-2.6,1.1-5.1,2-7.6c0.9-2.5,2.3-4.7,4.1-6.7c1.8-2,4.1-3.6,6.9-4.7c2.8-1.2,6.2-1.7,10-1.7
		c4.4,0,8.1,0.7,11,2.2c2.9,1.4,5.2,3.4,7,6c1.8,2.5,3.1,5.5,3.9,9c0.8,3.4,1.2,7.2,1.2,11.3c0,1.6,0,3.5,0,6c0,2.4,0,4.8-0.1,7.2
		c-0.1,2.4-0.1,4.4-0.1,6.1h-32c0,1.1,0,2.5,0,4.1c0,1.7,0,3.3,0,4.9c0,1.6,0,3,0,4.1c0,2.4,0.2,4.8,0.7,7c0.4,2.2,1.3,4,2.7,5.5
		C940,196.9,941.9,197.7,944.3,197.7z M944.5,134.9c-1.4,0-2.6,0.2-3.6,0.6c-0.9,0.4-1.8,1-2.5,1.7c-0.7,0.8-1.3,1.7-1.7,2.8
		c-0.4,1.1-0.7,2.4-1,3.8c-0.3,1.4-0.4,3-0.2,4.8v9.5h17.6c0-1.2,0-2.8,0-4.7c0-1.9,0-3.5,0-4.7c0-2-0.1-3.8-0.4-5.6
		c-0.3-1.7-0.7-3.2-1.3-4.4c-0.6-1.2-1.5-2.2-2.6-2.8C947.7,135.3,946.2,134.9,944.5,134.9z"/>
	<path class="st0" d="M977.2,158.3h29v13.8h-29V158.3z"/>
	<path class="st0" d="M1017.3,208.9V98.1h22.1c6,0,10.8,0.8,14.5,2.4c3.7,1.6,6.6,3.8,8.6,6.7c2,2.9,3.4,6.3,4.1,10.3
		c0.7,4,1.1,8.4,1.1,13.1v43.2c0,3.4-0.2,6.8-0.5,10.2c-0.3,3.4-1.1,6.6-2.2,9.5c-1.1,3-2.7,5.6-4.7,8c-2,2.3-4.8,4.1-8.2,5.5
		c-3.4,1.3-7.7,2-12.9,2H1017.3z M1032.1,110.9v85.3h6.1c2.4,0,4.5-0.3,6.1-0.9c1.7-0.6,3-1.5,4.1-2.6c1.1-1.1,2-2.5,2.6-4.1
		c0.6-1.6,1-3.5,1.2-5.6c0.2-2.1,0.3-4.4,0.3-7v-46.8c0-2.9-0.2-5.4-0.5-7.6c-0.3-2.2-1-4.1-2-5.8c-1-1.7-2.5-2.9-4.4-3.7
		c-1.9-0.8-4.5-1.2-7.7-1.2H1032.1z"/>
	<path class="st0" d="M1081.4,111V93.3h14.9V111H1081.4z M1081.4,208.9v-85.3h14.8v85.3H1081.4z"/>
	<path class="st0" d="M1152.6,144.7v47.8c0,1.4,0,2.9,0,4.5c0,1.6,0,3.1,0.1,4.7c0.1,1.6,0.1,3,0.2,4.2c0.1,1.2,0.1,2.2,0.1,3h-13.6
		c-0.1-0.7-0.2-1.4-0.4-2.2c-0.2-0.8-0.3-1.7-0.3-2.5c-0.1-0.8-0.2-1.4-0.4-1.7c-0.8,1.8-1.9,3.3-3.3,4.5c-1.4,1.2-3,2.1-4.7,2.6
		c-1.7,0.5-3.7,0.7-5.9,0.7c-4.2,0-7.6-1.2-10.2-3.5c-2.6-2.3-4.5-5.3-5.6-9c-1.2-3.7-1.7-7.7-1.7-12v-1.5c0-4,0.5-7.5,1.4-10.5
		c0.9-3,2.3-5.5,4.1-7.6c1.8-2,3.9-3.7,6.3-4.9c2.4-1.2,5-2.1,7.8-2.7c2.8-0.6,5.8-0.8,8.9-0.8c0.3,0,0.6,0,0.8,0c0.2,0,0.5,0,0.9,0
		c0.4,0,0.7,0,0.9,0v-11.9c0-1.8-0.1-3.3-0.2-4.7c-0.2-1.4-0.5-2.6-1-3.6s-1.2-1.7-2.1-2.2c-0.9-0.5-2.1-0.7-3.7-0.7
		c-1.3,0-2.5,0.2-3.4,0.7c-0.9,0.5-1.7,1.2-2.2,2.2c-0.6,0.9-0.9,2-1.1,3.3c-0.2,1.3-0.2,2.6-0.2,3.9v1.8h-14.6v-1.5
		c0-3,0.3-5.9,1-8.6c0.7-2.8,1.8-5.2,3.5-7.3c1.7-2.1,3.9-3.8,6.8-5c2.9-1.2,6.5-1.8,11-1.8c4,0,7.3,0.6,10,1.7
		c2.7,1.1,4.8,2.6,6.5,4.6c1.7,1.9,2.8,4.3,3.6,7.1C1152.2,138.4,1152.6,141.4,1152.6,144.7z M1138,180.2v-11c-0.3,0-0.9,0-1.6,0
		c-0.7,0-1.3,0-1.7,0c-2,0-3.9,0.2-5.6,0.7c-1.8,0.5-3.3,1.3-4.5,2.4c-1.2,1.1-2.2,2.6-2.8,4.6c-0.7,1.9-1,4.3-1,7.2v1.3
		c0,2.2,0.3,4.2,0.8,5.9c0.6,1.7,1.4,3.1,2.7,4.1c1.2,1.1,2.8,1.6,4.6,1.6c1.7,0,3.1-0.3,4.2-1s2.1-1.7,2.8-3
		c0.7-1.3,1.2-3.1,1.6-5.2C1137.8,185.8,1138,183.2,1138,180.2z"/>
	<path class="st0" d="M1185.8,197.7c1.8,0,3.2-0.4,4.2-1.1c1.1-0.7,1.9-1.8,2.5-3.3c0.6-1.5,0.9-3.3,0.9-5.4c0-1.8-0.2-3.3-0.6-4.6
		c-0.4-1.3-1-2.7-1.7-4c-0.8-1.3-2-2.7-3.6-4.1c-1.6-1.4-3.6-2.9-6.1-4.6c-3-1.8-5.5-3.5-7.6-5.3c-2.1-1.8-3.9-3.7-5.4-5.6
		c-1.5-2-2.6-4.2-3.2-6.6c-0.7-2.4-1-5.1-1-8c0-3.4,0.4-6.6,1.3-9.4c0.9-2.8,2.2-5.2,4.1-7.2c1.8-2,4.1-3.5,6.8-4.6
		c2.7-1.1,5.8-1.6,9.4-1.6c4,0,7.3,0.6,10,1.7c2.7,1.1,4.9,2.7,6.6,4.7c1.7,2,2.8,4.5,3.6,7.4c0.7,2.9,1.1,6.2,1.2,10v3.7h-14.4
		v-5.1c-0.1-1.5-0.2-2.9-0.4-4.1c-0.2-1.2-0.6-2.2-1.2-3.1c-0.6-0.8-1.4-1.4-2.2-1.8c-0.9-0.4-1.9-0.6-3.2-0.6
		c-1.6,0-2.9,0.4-3.9,1.1c-1.1,0.7-1.8,1.7-2.2,3.1c-0.4,1.3-0.7,2.9-0.7,4.6c0,1.8,0.3,3.3,0.8,4.7c0.6,1.4,1.5,2.7,2.9,4
		c1.4,1.3,3.5,2.9,6.2,4.7c3.5,2.1,6.5,4.2,8.9,6.2c2.4,2,4.4,4.1,6,6.2c1.6,2.1,2.8,4.5,3.5,7.1c0.7,2.7,1.1,5.8,1.1,9.3
		c0,4-0.5,7.5-1.4,10.5c-0.9,3-2.4,5.6-4.4,7.6c-2,2-4.4,3.5-7.2,4.6c-2.8,1.1-6.2,1.6-10,1.6c-4.5,0-8.3-0.6-11.2-1.9
		c-2.9-1.3-5.2-3-6.9-5.3c-1.7-2.3-2.8-4.8-3.5-7.6c-0.7-2.8-0.9-5.8-0.8-8.9v-3.8h14.9v4c0,1.6,0.1,3,0.4,4.4
		c0.3,1.4,0.7,2.6,1.4,3.6c0.7,1,1.5,1.7,2.5,2.2C1183.1,197.4,1184.3,197.7,1185.8,197.7z"/>
	<path class="st0" d="M1247.3,210.3c-2.7,0-4.9-0.4-6.6-1.1c-1.8-0.7-3.2-1.7-4.4-2.9c-1.2-1.2-2-2.5-2.6-3.8v35.2h-14.9V148
		c0-3.9,0-7.3,0-10.4c0-3,0-5.7,0-8c0-2.3-0.1-4.3-0.2-6h14.1c0.1,0.6,0.2,1.3,0.2,2.2c0.1,0.9,0.1,2,0.2,3.1
		c0.1,1.1,0.2,2.3,0.2,3.5c0.8-2,1.8-3.7,3.2-5.2c1.3-1.5,3-2.7,5.1-3.6c2-0.9,4.5-1.3,7.2-1.3c3,0,5.6,0.5,7.8,1.5
		c2.2,1,4,2.5,5.5,4.6c1.4,2.1,2.5,4.7,3.2,7.8c0.7,3.1,1.1,6.8,1.1,11v35.5c0,3.9-0.3,7.3-0.8,10.3c-0.6,3-1.4,5.6-2.4,7.7
		c-1.1,2.2-2.4,3.9-3.9,5.3c-1.6,1.4-3.3,2.4-5.2,3.2C1252.1,209.9,1249.9,210.3,1247.3,210.3z M1242.7,196.8c1.3,0,2.5-0.2,3.5-0.6
		c1-0.4,1.8-1,2.5-1.7c0.7-0.8,1.2-1.7,1.7-2.9c0.4-1.2,0.8-2.5,1-3.9c0.2-1.4,0.3-3,0.3-4.8v-34.5c0-2.2-0.2-4.1-0.6-5.6
		c-0.4-1.5-0.9-2.8-1.7-3.9c-0.7-1.1-1.6-1.8-2.6-2.3c-1-0.5-2.2-0.7-3.5-0.7c-1.3,0-2.5,0.2-3.6,0.6c-1.1,0.4-2,1-2.7,1.8
		c-0.8,0.8-1.4,1.9-1.9,3.1c-0.5,1.2-0.9,2.7-1.2,4.4c-0.3,1.7-0.5,3.6-0.5,5.6v28.9c0,2.3,0.1,4.5,0.4,6.5c0.3,2,0.7,3.8,1.4,5.4
		c0.7,1.6,1.6,2.8,2.8,3.7C1239.3,196.4,1240.8,196.8,1242.7,196.8z"/>
	<path class="st0" d="M1301.3,122.3c3,0,5.7,0.4,8.2,1.2c2.5,0.8,4.7,1.9,6.6,3.2c1.9,1.4,3.5,3.2,4.8,5.4c1.3,2.2,2.3,4.7,3,7.6
		c0.7,2.8,1,5.9,1,9.4v34c0,3.5-0.4,6.8-1.1,9.7c-0.7,2.9-1.7,5.5-3.1,7.7c-1.3,2.2-3,4-4.9,5.5c-1.9,1.4-4.2,2.5-6.7,3.2
		c-2.5,0.7-5.3,1.1-8.3,1.1c-3.9,0-7.2-0.6-10.1-1.7c-2.9-1.1-5.3-2.8-7.4-5.1c-2-2.3-3.6-5.1-4.6-8.5c-1-3.4-1.5-7.3-1.5-11.9
		v-34.9c0-3.5,0.3-6.7,1-9.5c0.7-2.8,1.7-5.2,3.2-7.3c1.5-2.1,3.2-3.8,5.1-5.2c1.9-1.4,4.1-2.4,6.6-3.1
		C1295.7,122.6,1298.4,122.3,1301.3,122.3z M1301,135.6c-1.2,0-2.3,0.2-3.3,0.5c-1,0.3-1.9,0.9-2.6,1.6c-0.7,0.7-1.3,1.6-1.7,2.6
		c-0.4,1-0.8,2.2-1,3.6c-0.2,1.4-0.3,2.9-0.3,4.6v35.3c0,2,0.2,3.8,0.5,5.5c0.3,1.7,0.9,3.1,1.6,4.2c0.7,1.2,1.7,2,2.8,2.7
		c1.2,0.6,2.6,0.9,4.2,0.9c1.2,0,2.3-0.2,3.2-0.5c0.9-0.3,1.7-0.9,2.4-1.6c0.7-0.7,1.2-1.6,1.7-2.7c0.5-1,0.9-2.3,1.1-3.7
		c0.2-1.4,0.3-3.1,0.3-5v-35.3c0-1.9-0.2-3.6-0.5-5.1s-0.8-2.8-1.5-4s-1.6-2-2.7-2.7C1304.2,135.9,1302.7,135.6,1301,135.6z"/>
	<path class="st0" d="M1337.3,208.9v-56.4c0-4.6,0-8.6,0-11.9c0-3.3,0-6.2,0-9c0-2.7-0.1-5.4-0.2-8h14.1c0.1,0.6,0.2,1.6,0.2,3.2
		c0,1.6,0,3.2,0.1,5.1c0.1,1.8,0.1,3.6,0.1,5.4c0.9-2.8,2-5.1,3.3-7c1.3-1.9,2.8-3.4,4.4-4.6c1.6-1.2,3.3-2,5.2-2.5
		c1.9-0.5,3.8-0.7,5.6-0.7v18.3c-3.3,0-6.4,0.6-9.1,1.7c-2.8,1.2-5,3.2-6.6,6.1c-1.6,2.9-2.4,7.2-2.4,12.7v47.6H1337.3z"/>
	<path class="st0" d="M1420.6,144.7v47.8c0,1.4,0,2.9,0,4.5c0,1.6,0,3.1,0.1,4.7c0.1,1.6,0.1,3,0.2,4.2c0.1,1.2,0.1,2.2,0.1,3h-13.6
		c-0.1-0.7-0.2-1.4-0.4-2.2c-0.2-0.8-0.3-1.7-0.3-2.5c-0.1-0.8-0.2-1.4-0.4-1.7c-0.8,1.8-1.9,3.3-3.3,4.5c-1.4,1.2-3,2.1-4.7,2.6
		c-1.7,0.5-3.7,0.7-5.9,0.7c-4.2,0-7.6-1.2-10.2-3.5c-2.6-2.3-4.5-5.3-5.6-9c-1.2-3.7-1.7-7.7-1.7-12v-1.5c0-4,0.5-7.5,1.4-10.5
		c0.9-3,2.3-5.5,4.1-7.6c1.8-2,3.9-3.7,6.3-4.9c2.4-1.2,5-2.1,7.8-2.7c2.8-0.6,5.8-0.8,8.9-0.8c0.3,0,0.6,0,0.8,0c0.2,0,0.5,0,0.9,0
		c0.4,0,0.7,0,0.9,0v-11.9c0-1.8-0.1-3.3-0.2-4.7c-0.2-1.4-0.5-2.6-1-3.6s-1.2-1.7-2.1-2.2c-0.9-0.5-2.1-0.7-3.7-0.7
		c-1.3,0-2.5,0.2-3.4,0.7c-0.9,0.5-1.7,1.2-2.2,2.2c-0.6,0.9-0.9,2-1.1,3.3c-0.2,1.3-0.2,2.6-0.2,3.9v1.8h-14.6v-1.5
		c0-3,0.3-5.9,1-8.6c0.7-2.8,1.8-5.2,3.5-7.3c1.7-2.1,3.9-3.8,6.8-5c2.9-1.2,6.5-1.8,11-1.8c4,0,7.3,0.6,10,1.7
		c2.7,1.1,4.8,2.6,6.5,4.6c1.7,1.9,2.8,4.3,3.6,7.1C1420.2,138.4,1420.6,141.4,1420.6,144.7z M1406,180.2v-11c-0.3,0-0.9,0-1.6,0
		c-0.7,0-1.3,0-1.7,0c-2,0-3.9,0.2-5.6,0.7c-1.8,0.5-3.3,1.3-4.5,2.4c-1.2,1.1-2.2,2.6-2.8,4.6c-0.7,1.9-1,4.3-1,7.2v1.3
		c0,2.2,0.3,4.2,0.8,5.9c0.6,1.7,1.4,3.1,2.7,4.1c1.2,1.1,2.8,1.6,4.6,1.6c1.7,0,3.1-0.3,4.2-1s2.1-1.7,2.8-3
		c0.7-1.3,1.2-3.1,1.6-5.2C1405.8,185.8,1406,183.2,1406,180.2z"/>
	<path class="st0" d="M1431.6,158.3h29v13.8h-29V158.3z"/>
	<path class="st0" d="M1471.7,208.9V98.1h41.3v13.8h-26.6v32h25.1v13.9h-25.1v51.1H1471.7z"/>
	<path class="st0" d="M1521,208.9v-56.4c0-4.6,0-8.6,0-11.9c0-3.3,0-6.2,0-9c0-2.7-0.1-5.4-0.2-8h14.1c0.1,0.6,0.2,1.6,0.2,3.2
		c0,1.6,0,3.2,0.1,5.1c0.1,1.8,0.1,3.6,0.1,5.4c0.9-2.8,2-5.1,3.3-7c1.3-1.9,2.8-3.4,4.4-4.6c1.6-1.2,3.3-2,5.2-2.5
		c1.9-0.5,3.8-0.7,5.6-0.7v18.3c-3.3,0-6.4,0.6-9.1,1.7c-2.8,1.2-5,3.2-6.6,6.1c-1.6,2.9-2.4,7.2-2.4,12.7v47.6H1521z"/>
	<path class="st0" d="M1604.3,144.7v47.8c0,1.4,0,2.9,0,4.5c0,1.6,0,3.1,0.1,4.7c0.1,1.6,0.1,3,0.2,4.2c0.1,1.2,0.1,2.2,0.1,3h-13.6
		c-0.1-0.7-0.2-1.4-0.4-2.2c-0.2-0.8-0.3-1.7-0.3-2.5c-0.1-0.8-0.2-1.4-0.4-1.7c-0.8,1.8-1.9,3.3-3.3,4.5c-1.4,1.2-3,2.1-4.7,2.6
		c-1.7,0.5-3.7,0.7-5.9,0.7c-4.2,0-7.6-1.2-10.2-3.5c-2.6-2.3-4.5-5.3-5.6-9c-1.2-3.7-1.7-7.7-1.7-12v-1.5c0-4,0.5-7.5,1.4-10.5
		c0.9-3,2.3-5.5,4.1-7.6c1.8-2,3.9-3.7,6.3-4.9c2.4-1.2,5-2.1,7.8-2.7c2.8-0.6,5.8-0.8,8.9-0.8c0.3,0,0.6,0,0.8,0c0.2,0,0.5,0,0.9,0
		c0.4,0,0.7,0,0.9,0v-11.9c0-1.8-0.1-3.3-0.2-4.7c-0.2-1.4-0.5-2.6-1-3.6s-1.2-1.7-2.1-2.2c-0.9-0.5-2.1-0.7-3.7-0.7
		c-1.3,0-2.5,0.2-3.4,0.7c-0.9,0.5-1.7,1.2-2.2,2.2c-0.6,0.9-0.9,2-1.1,3.3c-0.2,1.3-0.2,2.6-0.2,3.9v1.8H1561v-1.5
		c0-3,0.3-5.9,1-8.6c0.7-2.8,1.8-5.2,3.5-7.3c1.7-2.1,3.9-3.8,6.8-5c2.9-1.2,6.5-1.8,11-1.8c4,0,7.3,0.6,10,1.7
		c2.7,1.1,4.8,2.6,6.5,4.6c1.7,1.9,2.8,4.3,3.6,7.1C1604,138.4,1604.3,141.4,1604.3,144.7z M1589.7,180.2v-11c-0.3,0-0.9,0-1.6,0
		c-0.7,0-1.3,0-1.7,0c-2,0-3.9,0.2-5.6,0.7c-1.8,0.5-3.3,1.3-4.5,2.4c-1.2,1.1-2.2,2.6-2.8,4.6c-0.7,1.9-1,4.3-1,7.2v1.3
		c0,2.2,0.3,4.2,0.8,5.9c0.6,1.7,1.4,3.1,2.7,4.1c1.2,1.1,2.8,1.6,4.6,1.6c1.7,0,3.1-0.3,4.2-1s2.1-1.7,2.8-3
		c0.7-1.3,1.2-3.1,1.6-5.2C1589.6,185.8,1589.7,183.2,1589.7,180.2z"/>
	<path class="st0" d="M1619.4,208.9v-59.2c0-5.8,0-10.3,0-13.6s0-5.9,0-7.8c0-1.9-0.1-3.4-0.2-4.6h14.1c0.1,0.7,0.2,1.4,0.3,2.3
		c0.1,0.9,0.2,1.8,0.2,2.7c0,0.9,0.1,2,0.2,3.1c0.7-1.5,1.4-2.8,2.3-3.9c0.9-1.1,2-2,3.2-2.9c1.3-0.9,2.8-1.5,4.5-2
		c1.7-0.4,3.6-0.7,5.6-0.7c2.4,0,4.7,0.4,6.9,1.2c2.2,0.8,4,2.1,5.5,3.7c1.5,1.7,2.7,3.9,3.6,6.7c0.9,2.8,1.3,6.2,1.3,10.2v64.7
		H1652V147c0-2.7-0.3-4.8-0.9-6.5c-0.6-1.7-1.5-2.9-2.7-3.7c-1.2-0.8-2.6-1.2-4.4-1.2c-2.1,0-3.9,0.5-5.4,1.4
		c-1.5,0.9-2.6,2.6-3.3,5c-0.7,2.4-1.1,5.8-1.1,10.4v56.4H1619.4z"/>
	<path class="st0" d="M1696.4,93.3v68.4h0.3c0.8-1.8,1.7-3.9,2.8-6.4c1.1-2.5,2.3-5.2,3.6-8c1.3-2.9,2.5-5.7,3.7-8.4
		c1.2-2.7,2.4-5.4,3.6-8c1.2-2.7,2.2-5,3.1-7.1h15.6l-15.8,31.4c1.1,3.5,2.4,7.6,3.9,12.3c1.5,4.6,3.1,9.5,4.8,14.7
		c1.7,5.1,3.3,10.1,4.8,14.9c1.5,4.8,2.8,8.8,3.9,12.1h-16.3l-11.5-39.3l-6.6,12.4v26.9h-14.6V93.3H1696.4z"/>
	<path class="st0" d="M1756.8,208.9h-14.8v-72.4h-8.8v-12.9h8.8v-10c0-2.8,0.3-5.4,0.9-8c0.6-2.5,1.7-4.8,3.2-6.8
		c1.5-2,3.5-3.6,5.9-4.7c2.4-1.2,5.5-1.7,9.1-1.7c1.2,0,2.4,0.1,3.5,0.2c1.1,0.1,2,0.3,2.7,0.5v13.3c-0.7-0.1-1.2-0.2-1.7-0.2
		c-0.4,0-1,0-1.7,0c-2.9,0-4.8,0.8-5.7,2.4c-0.9,1.6-1.4,3.9-1.4,6.9v8.1h10.5v12.9h-10.5V208.9z"/>
	<path class="st0" d="M1821.4,123.6v61.1c0,4,0,7.6,0,10.7s0,5.8,0.1,8c0.1,2.2,0.1,4,0.1,5.6h-14.1c-0.1-0.6-0.2-1.3-0.2-2.3
		c-0.1-1-0.1-2-0.2-3.2c-0.1-1.1-0.1-2-0.2-2.8c-0.9,2.3-2.1,4.2-3.7,5.6c-1.6,1.4-3.4,2.5-5.4,3.1s-4.1,0.9-6.5,0.9
		c-1.9,0-3.8-0.3-5.8-0.9s-3.8-1.7-5.5-3.2c-1.7-1.5-3-3.7-4-6.6c-1-2.9-1.5-6.7-1.5-11.5v-64.6h14.8v60.7c0,2.1,0.2,4,0.5,5.6
		c0.3,1.6,0.8,2.9,1.4,3.9c0.6,1,1.4,1.7,2.5,2.2c1.1,0.5,2.3,0.7,3.7,0.7c1.9,0,3.5-0.5,4.9-1.4c1.4-0.9,2.5-2.6,3.2-5.1
		c0.8-2.4,1.2-5.8,1.2-10.1v-56.6H1821.4z"/>
	<path class="st0" d="M1836.3,208.9v-56.4c0-4.6,0-8.6,0-11.9c0-3.3,0-6.2,0-9c0-2.7-0.1-5.4-0.2-8h14.1c0.1,0.6,0.2,1.6,0.2,3.2
		c0,1.6,0,3.2,0.1,5.1c0.1,1.8,0.1,3.6,0.1,5.4c0.9-2.8,2-5.1,3.3-7c1.3-1.9,2.8-3.4,4.4-4.6c1.6-1.2,3.3-2,5.2-2.5
		c1.9-0.5,3.8-0.7,5.6-0.7v18.3c-3.3,0-6.4,0.6-9.1,1.7c-2.8,1.2-5,3.2-6.6,6.1c-1.6,2.9-2.4,7.2-2.4,12.7v47.6H1836.3z"/>
	<path class="st0" d="M1875.3,136.6v-12.9h9.3v-20.6h14.8v20.6h11.1v12.9h-11.1V190c0,1.4,0.1,2.7,0.3,3.9c0.2,1.2,0.8,2.1,1.7,2.8
		c0.9,0.7,2.2,1.1,3.8,1.1c0.9,0,1.8-0.1,2.7-0.2c0.9-0.1,1.7-0.2,2.2-0.3v11.3c-0.8,0.4-1.8,0.8-3,1c-1.2,0.2-2.4,0.4-3.6,0.4
		c-1.2,0.1-2.3,0.1-3.4,0.1c-2.3,0-4.5-0.2-6.4-0.7c-1.9-0.5-3.6-1.4-5-2.7c-1.4-1.3-2.4-3-3.2-5.3c-0.7-2.3-1.1-5.2-1.1-8.7v-56.1
		H1875.3z"/>
</g>
<g>
	<path class="st0" d="M277,154.9c18.2-7.9,30.8-26,30.8-47.3c0-28.1-22.6-51.1-50.7-51.6c-4.2-24.2-25.4-42.7-50.8-42.7
		c-21.4,0-39.9,13.2-47.6,31.9c-7.8-18.7-26.2-31.9-47.6-31.9c-25.4,0-46.6,18.5-50.8,42.7c-26.2,0.4-47.7,20.2-50.4,46.3
		c-0.2,1.7-0.3,3.5-0.3,5.3c0,20.9,12.1,38.7,29.9,46.9c-17.8,8.1-29.9,26-29.9,46.9c0,28.1,22.6,51.1,50.7,51.6
		c4.2,24.2,25.4,42.7,50.8,42.7c21.2,0,39.6-13,47.5-31.5c7.7,18.9,26.2,32.3,47.8,32.3c25.4,0,46.6-18.5,50.8-42.7
		c4.7-0.1,9.4-0.8,13.9-2.1c19.6-5.9,33.9-22.8,36.4-43.1c0.3-2.1,0.4-4.2,0.4-6.3C307.8,181,295.3,162.9,277,154.9z M153.8,64.7
		L153.8,64.7L153.8,64.7L153.8,64.7z"/>
	<g>
		<path class="st1" d="M162.9,65C162.9,65,162.9,65,162.9,65c0-0.1,0-0.1,0-0.2v-0.2l0,0c0.2-23.5,19.2-42.4,42.7-42.4
			c23.6,0,42.7,19.1,42.7,42.7c0,0.2,0,0.4,0,0.6c2.3-0.4,4.7-0.6,7.2-0.6c23.6,0,42.7,19.1,42.7,42.7c0,23.2-18.5,42.1-41.6,42.7
			l0,0h0c-0.4,0-0.8,0-1.2,0c-0.4,0-0.8,0-1.2,0l-91.5,0L162.9,65z"/>
		<path class="st2" d="M153.1,244C153.1,244.1,153.1,244.1,153.1,244c0,0.1,0,0.1,0,0.2v0.2l0,0c-0.2,23.5-19.2,42.4-42.7,42.4
			c-23.6,0-42.7-19.1-42.7-42.7c0-0.2,0-0.4,0-0.6c-2.3,0.4-4.7,0.6-7.2,0.6c-23.6,0-42.7-19.1-42.7-42.7
			c0-23.2,18.5-42.1,41.6-42.7l0,0h0c0.4,0,0.8,0,1.2,0s0.8,0,1.2,0l91.5,0L153.1,244z"/>
		<path class="st3" d="M142.6,152.3c0.6,0,1.1,0,1.7,0.1C143.7,152.3,143.2,152.3,142.6,152.3z"/>
		<path class="st3" d="M166,224.3c0.5,0.8,0.3,1.6,0.2,2.5C165.8,226,165.9,225.2,166,224.3z"/>
		<path class="st3" d="M22.5,123c0.2,0.3,0.4,0.6,0.5,0.9C22.9,123.6,22.7,123.3,22.5,123z"/>
		<path class="st3" d="M22.2,122.3c0.1,0.2,0.2,0.4,0.3,0.7C22.4,122.8,22.3,122.6,22.2,122.3z"/>
		<path class="st4" d="M14.4,184.7c0,0.5,0,1-0.5,1.3C13.9,185.5,13.9,185,14.4,184.7z"/>
		<path class="st3" d="M21.8,121.5C21.8,121.5,21.8,121.6,21.8,121.5C21.8,121.6,21.8,121.5,21.8,121.5z"/>
		<path class="st3" d="M23,123.9c0.2,0.2,0.3,0.4,0.5,0.5C23.1,124.5,23.1,124.2,23,123.9z"/>
		<path class="st3" d="M21.3,120.5C21.3,120.5,21.4,120.4,21.3,120.5C21.4,120.4,21.3,120.5,21.3,120.5z"/>
		<g>
			<path class="st5" d="M72.1,223.9c-0.2,0.1-0.3,0.3-0.5,0.4c-0.2,0.1-0.4,0.3-0.5,0.4c-0.1,0.1-0.3,0.2-0.4,0.3
				c-0.3,0.2-0.6,0.4-0.9,0.6c0,0,0,0,0,0c-0.2,0.1-0.4,0.2-0.6,0.3c0,0,0,0,0,0c-0.3,0.2-0.6,0.3-0.9,0.5c0,0,0,0,0,0
				c-0.4,0.2-0.7,0.3-1.1,0.5c0,0-0.1,0.1-0.1,0.1c-0.4,0-0.9,0-1.2,0.4c-1.5,0-3.5,0.8-4.4-0.6c-0.9-1.5,1-2.7,1.9-3.9
				c3.5-5,6.9-10.1,10.9-14.8c0.7-0.8,1.3-1.6,1.3-2.8c-1.1-0.1-1.5,0.8-2.1,1.4c-2,2.2-3.9,4.4-6.4,6.1c-2.3,1.5-4.8,2.6-7.7,2.4
				c-2.4-0.2-2.7-1-1.4-2.9c2.9-4.1,6.5-7.6,10.4-10.8c1-0.9,2.2-1.7,2.8-3.3c-1.5,0.3-2.4,1.1-3.4,1.7c-2.6,1.6-5.3,2.9-8.4,2.9
				c-0.9,0-1.8-0.2-2.6-0.4c-1-0.3-2.1-0.7-2.3-1.8c-0.2-1.1,0.8-1.7,1.5-2.2c3.2-2.4,6.8-4.1,10.6-5.3c1-0.3,2.1-0.6,2.8-1.6
				c-0.9-0.6-1.7-0.1-2.5,0c-2.9,0.4-5.7,0.6-8.6-0.2c-1.2-0.3-2.4-0.9-3.3-1.7c-1.6-1.4-1.4-2.4,0.5-3.2c3.6-1.5,7.5-1.5,11.3-1.5
				c1.2,0,2.4,0.2,3.5-0.3c0-1-0.8-0.8-1.3-0.8c-2.1-0.3-4.3-0.5-6.3-1.3c-2.6-1-4.4-2.7-4.8-5.5c-0.4-2.1,0.2-2.6,2.2-2.1
				c1.4,0.3,2.7,0.7,4,1.1c3.1,0.9,6.2,1.4,9.4,1.2c1.2-0.1,2.5-0.1,3.8,0c3.7,0.4,5.3,3.4,3.7,6.7c-0.8,1.6-1.9,3.2-2.6,4.9
				c-1.1,2.7-0.6,5.2,1.3,7.4c1.9,2.2,4.5,2.7,7.2,2.2c2.7-0.5,3.4-1.7,2.5-4.5c-0.2-0.6,0.3-0.9,0.7-1.3c1.4-1.8,3.6-2.6,5.4-3.8
				c1.9-1.4,1.9-2.1-0.3-3.2c0.3-0.4,0.8-1,0.8-1.1c-1.3-1.1,0.2-1.6,0.5-2.3c0.9-0.1,1.9-0.2,2.8-0.5c0.5-0.1,1.1-0.4,0.9-1
				c-0.2-0.7-0.8-0.7-1.5-0.5c-0.8,0.3-1.6,0.6-2.5,1c-0.4,0-0.7,0-1.1,0l0,0c-1.1-0.2-2.2-0.5-3.3-0.7c-0.3-1.2-0.3-1.3,1.9-2.8
				c3.5-0.9,7-0.7,10.5,0.1l0,0c-0.1,0.3,0.1,0.4,0.4,0.4c2,1.3,2.5,3.5,3.2,5.5c0.4,1.2,0.2,2.8,0,4.2c-0.1,0.8,0,1.4,0,2.2
				c0,0.5,1.2,1.4-0.6,1.4c-0.7,0,0.3,1.3,0.4,2.1c0.1,0.5,2.1,1.6-0.4,1.7c-0.8,0-0.2,0.8-0.1,1.2c0.9,2.1,4.4,3.2,7.2,2.4
				c4-1.1,6-5.3,4.3-9.4c-0.6-1.6-1.6-3-2.4-4.5c-2.1-3.9-0.4-7.2,4.1-7c5.8,0.2,11.3-0.4,16.8-2.2c1.8-0.6,2.5,0.2,2.2,2.1
				c-0.3,2.8-2.2,4.4-4.6,5.5c-2.5,1.2-5.3,1.1-8.1,1.7c0.7,1.1,1.6,0.8,2.4,0.9c3.2,0.2,6.5,0.1,9.7,0.8c0.4,0.1,0.9,0.1,1.3,0.3
				c1.2,0.4,3.1,0.5,3.2,2c0.1,1.6-1.6,2.3-2.9,2.9c-2.6,1.2-5.4,1.2-8.3,0.8c-1.2-0.1-2.4-0.3-4-0.5c1,1.7,2.4,1.9,3.5,2.3
				c3.6,1.1,6.8,2.8,9.8,5c0.8,0.6,1.9,1.2,1.7,2.4c-0.3,1.2-1.5,1.5-2.6,1.8c-3.2,0.9-6.1-0.2-8.9-1.6c-1.7-0.8-3-2.1-4.9-2.7
				c-0.2,1.5,0.8,2,1.6,2.6c3.8,3,7.6,6.2,10.5,10.1c0.8,1.1,2.4,2.2,1.6,3.5c-0.9,1.4-2.9,1-4.3,0.7c-4.3-1-7.4-3.7-10.3-6.9
				c-1-1.1-1.8-2.3-3.3-3.2c-0.3,1.7,0.7,2.6,1.4,3.6c3.1,4.1,6.2,8.1,9.3,12.1c0.8,1.1,1.6,2.1,2.3,3.3c0.5,0.8,1.6,1.8,1.1,2.7
				c-0.7,1.2-2.2,0.8-3.3,0.6c-4.1-0.7-7.3-3.1-9.9-6.2c-2.7-3.2-5-6.8-7.1-10.4c-0.3-0.5-0.4-1.1-1.3-1.1c0.3,2.5,1.8,4.6,2.9,6.8
				c0.8,1.7,1.7,3.4,2.5,5.2c0.6,1.2,0.1,1.8-1.2,1.8c-1.9-0.1-3.4-1-4.8-2.1c-2.3-1.9-3.8-4.3-4.9-7c-0.4-1-0.7-2.1-1.6-3
				c-1.2,1.7-1.4,3.3-0.5,5.1c1.9,3.7,4.9,6.4,8.4,8.6c0.5,0.3,1.6,0.3,1.4,1.1c-0.1,0.8-1.1,0.8-1.8,1c-0.6,1-2.1,1.3-2.6,2.5
				c-0.3,0.1-0.7,0.2-1,0.2c-0.1-0.1-0.3-0.4-0.3-0.4c-0.4,0.2-0.5,0.5-0.5,1c-0.1,0.1-0.2,0.2-0.1,0.3c-0.5,0.6-0.8,1.2-1.7,0.2
				c-1.6-1.7-2.1-3.7-2.4-5.9c-1.1,0.1-1.1,2.3-2.6,1.3c-0.9-0.6-1.1-1.8-1.8-2.6c-0.5,4.1,1.4,7.4,3.1,10.9c0,0,0,0,0,0
				c0.2,0.3,0.4,0.5,0.5,0.8c0,0,0,0,0,0c0.2,0.3,0.4,0.6,0.6,0.8c0,0,0,0,0,0c0.1,0.2,0.3,0.4,0.4,0.5c0,0,0,0,0,0
				c0.2,0.3,0.4,0.5,0.6,0.8c0,0,0,0,0,0c0.1,0.2,0.3,0.3,0.4,0.5c1,1.4,2.3,2.4,3.7,3.4c1.2,0.9,3,1.5,1.6,3.5
				c-0.8,1.2-3.8,1.5-5.1,0.4c-1.7-1.4-3.1-3-3.8-5.2c-0.1-0.2-0.2-0.4-0.2-0.6l-0.1,0.1c0,0,0.1-0.1,0.1-0.1
				c-0.4-0.9-0.8-1.8-1.4-3.3c-0.3,1.7,0,2.6,0.5,3.5c0.1,2.3,1.8,3.8,2.8,5.7c0.2,0.2,0.3,0.4,0.5,0.6l0-0.1c0,0,0,0.1,0,0.1
				c0.1,0.2,0.2,0.3,0.4,0.5c0,0,0.1,0.1,0.1,0.1c0.1,0.1,0.3,0.3,0.4,0.4c0,0,0,0,0,0c0.2,0.2,0.4,0.4,0.7,0.6
				c0.1,0.2,0.3,0.3,0.4,0.5c0.1,0.1,0.1,0.3,0.2,0.4c0,0.6,0,1.2,0,1.8c0,0.1-0.1,0.3-0.1,0.4c-2,1.4-3,1.2-5.2-1.3
				c0.1,2.6-0.1,5-1.8,6.9c-1.4,1.7-2,1.7-3.4,0c-1.7-2.1-2.1-4.5-1.6-7.1c-0.8,0.1-0.8,0.7-1.2,1.1c-1.1,1.1-2.5,2-3.8,0.7
				c-1.3-1.2-1-2.7,0.2-3.9c2-2,3.4-4.2,4.2-6.9c0.2-0.6,0.4-1.1,0.1-1.7c-0.9,0-0.9,0.9-1.1,1.4c-0.9,1.6-1.8,3.2-3.1,4.5
				c-1.9,1.9-3.7,1.9-6.1,0.1c-0.5-1.1-0.2-1.9,0.9-2.5c5.8-3.6,8.5-9.2,10-15.6c0.2-1,0.3-2.2-0.4-3.2c-1.4,3.6-1.6,3.7-4.2,2.2
				c-0.2,1.7-1,3.2-1.8,4.7c-0.6,1.1-1.3,1.8-2,0.2c-0.4-0.9-1-1-1.8-0.6c-1.2-0.4-1.4-1.8-2.4-2.4c-0.7-0.7-1.9-0.4-2.4-1.4
				c0.2-0.7,0.9-0.7,1.3-1c3.7-2.2,6.6-5.1,8.2-9.2c0.6-1.5,0.5-2.9-0.9-4.4c-0.7,1.6-1.3,3-2,4.3c-1.7,3.3-4,6-7.5,7.4
				c-0.9,0.4-2.1,0.9-2.9,0c-0.8-0.8,0-1.8,0.4-2.6c1.4-2.9,2.9-5.8,4.2-8.7c0.4-0.9,0.9-1.8,0.3-3
				C79.5,214.5,76.6,219.8,72.1,223.9z"/>
			<path class="st6" d="M113,230.2c0.5-1.2,1.9-1.5,2.6-2.5c1.1,1.7,2.6,3,4.2,4.2c2.8,1.9,5.2,1.5,7.3-1.2c0.6-0.7,1.3-0.7,2-0.3
				c1.2,0.5,2,1.5,1.8,2.8c-0.2,1.1-0.3,1.8,0.6,2.7c0.7,0.7,0.2,1.9-1.6,3.9c-0.4-1.4-1.3-2.4-2.4-3.3c0.5-0.2,0.9-0.4,1.3-0.5
				c0.7-0.1,1.1-0.5,0.9-1.2c-0.2-0.7-0.7-0.9-1.4-0.8c-1.3,0.2-2.5,0.7-3.7,1.3c-1,0.5-0.5,1.3-0.2,1.9c0.4,0.7,0.9,1.6,1.5,1.8
				c1.6,0.6,1.9,1.7,1.4,3.1c-0.5,1.6-2,1.3-3.2,1.3c-0.6,0-1.2-0.1-1.6-0.8c0.5-0.6,2.1-0.7,1.1-2c-0.8-1.1-1.2-3.1-3-2.8
				c-0.9,0.1-2.6,0.6-2.1,2.5c0.2,0.6,0,0.8-0.6,0.9c-1.5,0.2-2.8-0.1-3-1.8c-0.2-1.4-0.1-2.8,2-2.6c0.6,0.1,1.2-0.1,1.5-0.7
				c0.4-0.8-0.2-1.3-0.7-1.7C116.2,233,114.6,231.6,113,230.2z"/>
			<path class="st6" d="M86.1,230.2c-1.2,1-2.3,2.1-3.5,3.1c-1.2,1-1.4,1.8,0.4,2.4c0.8,0.3,1.7,0.8,1.6,1.9c-0.1,1-1,1.4-1.7,1.9
				c-0.4,0.2-0.7-0.1-0.8-0.5c-0.3-0.9-0.4-1.8-1.9-1c-0.7,0.4-2.3,0.8-2.9-0.4c-0.8-1.6-1-0.4-1.4,0.1c-1.5,0.7-0.5,2.1-0.9,3.2
				c-0.9,0-1.8,0-2.7,0c-0.3-0.7-0.9-1.3-0.9-2.2c0.8-0.8,1.5-1.7,2.6-2.3c1.4-0.8,1.2-1.6-0.3-2.4c-2.1-1.1-3.4,0.1-4.9,1
				c0-1.1,0-2.1,0-3.2c0.1-0.2,0.3-0.4,0.4-0.7c0.3-0.3,0.6-0.6,0.9-0.8c0.8-0.1,1.5-0.1,2.3,0.5c3.7,2.7,5.6,2.6,8.9-0.5
				c0.8-0.8,1.5-1.6,2.3-2.4C84.7,228.4,84.9,229.8,86.1,230.2z"/>
			<path class="st7" d="M92.4,171.2c1.2,0.6,2-0.7,3.1-0.7c0,0.7-0.1,1.5,0,2.2c0.2,1.4,1.3,0.9,2.1,0.7c0.8-0.1,1.4-1,0.7-1.4
				c-2-1.4-0.4-2.3,0.2-3.4c0.2-0.4,0.4-0.8,0.7-1.3c0.4,0.7,0.6,1.4,1.1,1.9c0.7,0.8,0.9,1.4-0.1,2.1c-0.5,0.4-0.9,1.1-0.5,1.5
				c0.7,0.8,1.9,0.6,2.9,0.7c0.8,0.1,0.6-0.9,0.5-1.4c-0.4-2.2,0.7-1.8,2-1.2c1.4,0.6,2.7,2.1,4.5,0.5c-0.6,1.5-1.4,2.6-2.9,3
				c-0.1-0.6-0.3-1.1-0.5-1.7c-0.2-0.5-0.4-1.1-1.1-0.8c-0.6,0.2-0.8,0.8-1,1.4c-0.2,0.6,0.1,0.9,0.7,1.1c0.7,0.3,1.2,0.2,1.8-0.1
				c-0.1,1.3-1.1,2.1-1.5,3.2c-0.1,0-0.2,0-0.3,0c0,0,0,0,0,0c-3.4-2.2-7-1.5-10.5-0.5c-0.6,0.1-1.2,0-1.6-0.5
				c-1.3-1.6-2.7-3.2-4.3-5.1c1.4,0,2.4,1.1,3.2-0.2C91.8,171.2,92.1,171.2,92.4,171.2z M94.8,173.8c-0.8-0.7-0.7-2.5-2.1-1.9
				c-0.8,0.3-1.2,1.5-0.7,2.3C93,175.6,93.8,173.7,94.8,173.8z M101,174.6c0.3,0.2,0.5,0.4,0.6,0.4c0.3,0,1,0.4,0.7-0.4
				C102.2,174.3,101.6,174.3,101,174.6z M104.5,175.3c-0.3-0.1-0.5-0.3-0.8-0.4c-0.1,0.1-0.2,0.2-0.2,0.3c0.1,0.3,0.3,0.5,0.7,0.4
				C104.3,175.6,104.4,175.5,104.5,175.3z"/>
			<path class="st7" d="M92.4,180.2c1.1,0.2,2.2,0.5,3.3,0.7c0,0,0,0,0,0c0.4,0,0.7,0,1.1,0c0.1,0.4,0.1,0.7,0.2,1.1
				c-0.3,0.7-1.9,1.2-0.5,2.3c0,0-0.5,0.7-0.8,1.1c-1-0.1-1.9,0-2.7,0.5c-0.7,0.5-1.4,0.3-2-0.3c-0.9-1,0.6-1.1,0.7-1.7
				c-0.1-0.1-0.2-0.1-0.3-0.2c-0.8-0.2-2.1,0.5-2.3-0.6c-0.3-1.1,0.9-1.8,1.7-2.3C91.1,180.5,91.8,180.4,92.4,180.2z"/>
			<path class="st3" d="M94.3,176.9c3.6-1,7.1-1.7,10.5,0.5c-3.5-0.8-7-0.9-10.5-0.1C94.3,177.3,94.3,177.1,94.3,176.9z"/>
			<path class="st0" d="M111.1,231c0-0.4,0.1-0.8,0.5-1c0.1,0,0.2,0.2,0.3,0.4C111.8,230.8,111.5,231,111.1,231z"/>
			<path class="st2" d="M106.5,236.8c-0.2-0.3-0.4-0.6-0.6-0.8C106.5,236,106.5,236.4,106.5,236.8z"/>
			<path class="st2" d="M69.8,225.7c0.3-0.2,0.6-0.4,0.9-0.6C70.6,225.6,70.2,225.7,69.8,225.7z"/>
			<path class="st2" d="M106,236c-0.2-0.3-0.4-0.5-0.5-0.8C106.1,235.2,106.1,235.6,106,236z"/>
			<path class="st2" d="M68.3,226.5c0.3-0.2,0.6-0.3,0.9-0.5C69.2,226.5,68.8,226.6,68.3,226.5z"/>
			<path class="st2" d="M67.3,227c0.4-0.2,0.7-0.3,1.1-0.5C68.2,227,67.8,227,67.3,227z"/>
			<path class="st2" d="M66,227.4c0.3-0.4,0.7-0.4,1.2-0.4C66.9,227.5,66.4,227.5,66,227.4z"/>
			<path class="st2" d="M107.4,238.1c-0.2-0.3-0.4-0.5-0.6-0.8C107.3,237.4,107.4,237.7,107.4,238.1z"/>
			<path class="st2" d="M69.4,231c-0.1,0.2-0.3,0.4-0.4,0.7C69.1,231.5,69.2,231.2,69.4,231z"/>
			<path class="st2" d="M69.2,226c0.2-0.1,0.4-0.2,0.6-0.3C69.7,225.9,69.5,226,69.2,226z"/>
			<path class="st2" d="M71,224.8c0.2-0.1,0.4-0.3,0.5-0.4C71.4,224.5,71.2,224.6,71,224.8z"/>
			<path class="st2" d="M106.9,237.3c-0.1-0.2-0.3-0.4-0.4-0.5C106.6,237,106.8,237.2,106.9,237.3z"/>
			<path class="st3" d="M104.7,177.5c0.1,0,0.2,0,0.3,0c0.1,0.1,0.1,0.3,0.1,0.4C104.9,177.8,104.7,177.8,104.7,177.5z"/>
			<path class="st2" d="M107.9,238.6c-0.1-0.2-0.3-0.3-0.4-0.5C107.6,238.3,107.7,238.4,107.9,238.6z"/>
			<path class="st2" d="M106.4,246.7c-0.2-0.2-0.3-0.4-0.5-0.6C106.2,246.2,106.4,246.4,106.4,246.7z"/>
			<path class="st2" d="M106.7,247.2c-0.1-0.2-0.2-0.3-0.4-0.5C106.7,246.7,106.8,246.8,106.7,247.2z"/>
			<path class="st2" d="M107.2,247.6c-0.1-0.1-0.3-0.3-0.4-0.4C107.1,247.1,107.3,247.3,107.2,247.6z"/>
			<path class="st2" d="M108.4,249.2c-0.1-0.1-0.1-0.3-0.2-0.4c0.1,0.1,0.2,0.2,0.3,0.3C108.6,249,108.5,249.1,108.4,249.2z"/>
			<path class="st2" d="M108.3,251.4c0-0.1,0.1-0.3,0.1-0.4c0,0.1,0.1,0.2,0,0.3C108.5,251.3,108.4,251.4,108.3,251.4z"/>
			<path class="st2" d="M96.9,182c-0.1-0.4-0.1-0.7-0.2-1.1c0.8-0.3,1.6-0.7,2.5-1c0.6-0.2,1.3-0.2,1.5,0.5c0.2,0.6-0.4,0.9-0.9,1
				C98.8,181.7,97.9,181.8,96.9,182z"/>
			<path class="st2" d="M95.7,180.9C95.7,180.9,95.7,180.9,95.7,180.9C95.7,180.9,95.7,180.9,95.7,180.9z"/>
		</g>
		<path class="st8" d="M297.9,207.5c0.2-1.7,0.3-3.5,0.3-5.3c0-23.2-18.5-42.1-41.6-42.7l0,0h0c-0.4,0-0.8,0-1.2,0
			c-0.4,0-0.8,0-1.2,0l-91.5,0l0,32.7c11.7-1.4,23.5-2.2,35.6-2.2C233.4,190.1,266.9,196.2,297.9,207.5z"/>
		<path class="st2" d="M267.8,243.2c16-4.8,28.1-18.7,30.2-35.7c-31-11.3-64.5-17.4-99.4-17.4c-12,0-23.9,0.7-35.6,2.2l0,38.9
			c9.2-1.2,18.5-1.8,28-1.8C217.9,229.3,243.8,234.2,267.8,243.2z"/>
		<path class="st6" d="M162.9,244.9C162.9,245,162.9,245,162.9,244.9l0,0.3l0,0c0.2,23.5,19.2,42.4,42.7,42.4
			c23.6,0,42.7-19.1,42.7-42.7c0-0.2,0-0.4,0-0.6c2.3,0.4,4.7,0.6,7.2,0.6c4.3,0,8.4-0.6,12.2-1.8c-23.9-9-49.8-13.9-76.9-13.9
			c-9.5,0-18.8,0.6-28,1.8L162.9,244.9C162.9,244.9,162.9,244.9,162.9,244.9z"/>
		<path class="st9" d="M153.1,114.1l0-49c0,0,0-0.1,0-0.1s0-0.1,0-0.1v-0.2l0,0c-0.2-23.5-19.2-42.4-42.7-42.4
			c-23.6,0-42.7,19.1-42.7,42.7c0,0.2,0,0.4,0,0.6c-2.3-0.4-4.7-0.6-7.2-0.6C38.4,65,20.2,81.8,18,103.3c17.4-6.5,36.3-10,56-10
			C102.7,93.3,129.7,100.8,153.1,114.1z"/>
		<path class="st10" d="M59.3,150.4L59.3,150.4L59.3,150.4c0.4,0,0.8,0,1.2,0s0.8,0,1.2,0l91.5,0l0-36.3
			c-23.4-13.2-50.4-20.8-79.1-20.8c-19.7,0-38.6,3.5-56,10c-0.1,1.4-0.2,2.9-0.2,4.4C17.7,130.9,36.2,149.8,59.3,150.4z"/>
		<g>
			<polygon class="st10" points="215.4,53.4 216.9,57.9 221.7,58 217.9,60.8 219.3,65.4 215.4,62.6 211.5,65.4 212.9,60.8 209.1,58 
				213.8,57.9 			"/>
			<polygon class="st10" points="175.6,93.6 177.2,98.1 181.9,98.2 178.1,101 179.5,105.6 175.6,102.9 171.7,105.6 173.1,101 
				169.3,98.2 174.1,98.1 			"/>
			<polygon class="st10" points="180.8,73.3 182.3,77.8 187.1,77.9 183.3,80.8 184.7,85.3 180.8,82.6 176.9,85.3 178.3,80.8 
				174.5,77.9 179.2,77.8 			"/>
			<polygon class="st10" points="195.4,59 196.9,63.5 201.7,63.5 197.9,66.4 199.3,71 195.4,68.2 191.5,71 192.9,66.4 189.1,63.5 
				193.9,63.5 			"/>
			<polygon class="st10" points="249.9,73.3 248.4,77.8 243.6,77.9 247.4,80.8 246,85.3 249.9,82.6 253.8,85.3 252.4,80.8 
				256.2,77.9 251.5,77.8 			"/>
			<polygon class="st10" points="180.8,113.5 182.3,118 187.1,118.1 183.3,120.9 184.7,125.5 180.8,122.8 176.9,125.5 178.3,120.9 
				174.5,118.1 179.2,118 			"/>
			<polygon class="st10" points="249.9,113.5 248.4,118 243.6,118.1 247.4,120.9 246,125.5 249.9,122.8 253.8,125.5 252.4,120.9 
				256.2,118.1 251.5,118 			"/>
			<polygon class="st10" points="235.3,59 233.8,63.5 229,63.5 232.8,66.4 231.4,71 235.3,68.2 239.2,71 237.8,66.4 241.6,63.5 
				236.9,63.5 			"/>
			<polygon class="st10" points="195.4,127.9 196.9,132.4 201.7,132.4 197.9,135.3 199.3,139.9 195.4,137.1 191.5,139.9 
				192.9,135.3 189.1,132.4 193.9,132.4 			"/>
			<polygon class="st10" points="235.3,127.9 233.8,132.4 229,132.4 232.8,135.3 231.4,139.9 235.3,137.1 239.2,139.9 237.8,135.3 
				241.6,132.4 236.9,132.4 			"/>
			<polygon class="st10" points="255.4,93.6 257,98.1 261.7,98.2 257.9,101 259.3,105.6 255.4,102.9 251.5,105.6 252.9,101 
				249.1,98.2 253.9,98.1 			"/>
			<polygon class="st10" points="215.4,133.4 216.9,137.9 221.7,138 217.9,140.8 219.3,145.4 215.4,142.6 211.5,145.4 212.9,140.8 
				209.1,138 213.8,137.9 			"/>
		</g>
	</g>
</g>
</svg>
